<?xml version="1.0" encoding="UTF-8"?>
<svg id="Layer_1" xmlns="http://www.w3.org/2000/svg" version="1.1" viewBox="0 0 800 317.68">
  <!-- Generator: Adobe Illustrator 29.8.2, SVG Export Plug-In . SVG Version: 2.1.1 Build 3)  -->
  <defs>
    <style>
      .st0 {
        fill: #e53238;
      }

      .st1 {
        fill: #f5af02;
      }

      .st2 {
        fill: #0064d2;
      }

      .st3 {
        fill: #86b817;
      }
    </style>
  </defs>
  <path class="st0" d="M103.64,69.31C47.26,69.31.27,93.04.27,164.61c0,56.71,31.6,92.41,104.83,92.41,86.2,0,91.73-56.32,91.73-56.32h-41.77s-8.96,30.32-52.51,30.32c-35.47,0-60.98-23.76-60.98-57.07h159.63v-20.9c0-32.95-21.09-83.75-97.55-83.75h0ZM102.19,96.02c33.77,0,56.78,20.51,56.78,51.26H42.49c0-32.64,30.05-51.26,59.7-51.26h0Z"/>
  <path class="st2" d="M201.17,0v221.08c0,12.55-.9,30.17-.9,30.17h39.84s1.43-12.66,1.43-24.22c0,0,19.68,30.54,73.2,30.54,56.36,0,94.64-38.8,94.64-94.4,0-51.72-35.16-93.32-94.55-93.32-55.61,0-72.89,29.78-72.89,29.78V0h-40.77ZM304.54,97.2c38.27,0,62.61,28.17,62.61,65.97,0,40.54-28.11,67.05-62.34,67.05-40.85,0-62.88-31.63-62.88-66.69,0-32.67,19.77-66.33,62.61-66.33Z"/>
  <path class="st1" d="M508.39,69.31c-84.83,0-90.27,46.07-90.27,53.43h42.22s2.21-26.89,45.14-26.89c27.89,0,49.5,12.66,49.5,37v8.66h-49.5c-65.72,0-100.47,19.07-100.47,57.76s32.1,58.8,75.49,58.8c59.12,0,78.17-32.4,78.17-32.4,0,12.89,1,25.59,1,25.59h37.54s-1.46-15.74-1.46-25.81v-87.05c0-57.07-46.42-69.09-87.36-69.09h0ZM554.98,167.5v11.55c0,15.07-9.37,52.52-64.57,52.52-30.22,0-43.18-14.96-43.18-32.31,0-31.56,43.64-31.77,107.75-31.77h0Z"/>
  <polygon class="st3" points="573.01 76.54 620.51 76.54 688.68 211.99 756.71 76.54 799.73 76.54 675.84 317.68 630.71 317.68 666.45 250.46 573.01 76.54"/>
</svg>
