<?xml version="1.0" encoding="UTF-8"?>
<svg id="Layer_1" xmlns="http://www.w3.org/2000/svg" version="1.1" viewBox="0 0 800 226.17">
  <!-- Generator: Adobe Illustrator 29.8.2, SVG Export Plug-In . SVG Version: 2.1.1 Build 3)  -->
  <defs>
    <style>
      .st0 {
        fill: #fff;
        stroke: #fff;
        stroke-miterlimit: 6.25;
        stroke-width: 1.56px;
      }
    </style>
  </defs>
  <g id="SVGRepo_iconCarrier">
    <g>
      <path class="st0" d="M42.39.73C26.06,7.57,8.12,26.86,2.45,51.1c-7.18,30.7,22.69,43.68,25.14,39.43,2.88-5-5.35-6.69-7.05-22.62-2.19-20.57,7.37-43.56,19.41-53.64,2.24-1.87,2.13.73,2.13,5.56,0,8.63-.48,86.07-.48,102.23,0,21.87-.9,28.78-2.53,35.6-1.64,6.92-4.29,11.59-2.28,13.39,2.24,2.01,11.79-2.78,17.32-10.49,6.63-9.26,8.95-20.37,9.37-32.45.5-14.55.48-37.65.5-50.82.02-12.08.2-47.46-.21-68.72-.1-5.22-14.57-10.69-21.39-7.83"/>
      <path class="st0" d="M621.98,103.08c-.53,11.37-3.04,20.26-6.17,26.52-6.05,12.14-18.59,15.9-23.92-1.54-2.9-9.51-3.04-25.39-.95-38.66,2.12-13.52,8.06-23.73,17.88-22.81,9.69.91,14.23,13.4,13.16,36.48h0ZM458.63,173.62c-.13,18.89-3.1,35.46-9.48,40.27-9.04,6.82-21.2,1.7-18.68-12.08,2.23-12.2,12.76-24.66,28.19-39.88,0,0,.03,3.47-.03,11.69h0ZM456.16,102.97c-.55,10.36-3.24,20.76-6.17,26.64-6.05,12.14-18.68,15.93-23.92-1.54-3.58-11.94-2.72-27.39-.95-37.12,2.3-12.63,7.87-24.35,17.88-24.35s14.53,10.68,13.16,36.37h0ZM361.52,102.81c-.59,10.97-2.73,20.13-6.17,26.79-6.21,12.05-18.5,15.87-23.92-1.54-3.91-12.56-2.58-29.68-.95-38.93,2.41-13.73,8.45-23.46,17.88-22.54,9.69.95,14.39,13.39,13.16,36.21h0ZM795.2,115.62c-2.37,0-3.45,2.44-4.34,6.55-3.1,14.29-6.36,17.51-10.56,17.51-4.7,0-8.91-7.07-10-21.23-.85-11.13-.72-31.63.37-52.02.22-4.19-.93-8.33-12.17-12.42-4.83-1.76-11.86-4.34-15.36,4.11-9.89,23.86-13.76,42.81-14.67,50.51-.05.4-.54.48-.62-.45-.58-6.16-1.88-17.37-2.04-40.9-.03-4.59-1-8.5-6.07-11.7-3.29-2.08-13.28-5.75-16.87-1.38-3.12,3.57-6.72,13.19-10.47,24.59-3.05,9.26-5.17,15.53-5.17,15.53,0,0,.04-25,.08-34.48.02-3.58-2.44-4.77-3.18-4.99-3.33-.97-9.89-2.58-12.68-2.58-3.44,0-4.28,1.92-4.28,4.72,0,.37-.54,32.91-.54,55.67,0,.99,0,2.07,0,3.21-1.9,10.46-8.06,24.66-14.77,24.66s-9.88-5.94-9.88-33.07c0-15.83.48-22.71.71-34.16.14-6.59.4-11.66.38-12.81-.05-3.52-6.14-5.3-8.98-5.96-2.85-.66-5.32-.92-7.26-.81-2.74.16-4.67,1.95-4.67,4.42,0,1.32.01,3.84.01,3.84-3.52-5.54-9.19-9.39-12.96-10.51-10.16-3.02-20.75-.34-28.75,10.84-6.35,8.89-10.18,18.95-11.69,33.41-1.1,10.57-.74,21.29,1.22,30.36-2.37,10.23-6.76,14.42-11.57,14.42-6.98,0-12.05-11.4-11.46-31.11.39-12.97,2.98-22.07,5.82-35.23,1.21-5.61.23-8.55-2.24-11.37-2.26-2.58-7.08-3.9-14-2.28-4.93,1.16-11.98,2.4-18.43,3.36,0,0,.39-1.55.71-4.29,1.68-14.36-13.93-13.19-18.9-8.61-2.97,2.74-4.99,5.97-5.76,11.77-1.22,9.21,6.3,13.56,6.3,13.56-2.47,11.29-8.51,26.03-14.75,36.69-3.34,5.71-5.9,9.94-9.2,14.44-.01-1.68-.02-3.35-.03-5.02-.08-23.73.24-42.41.38-49.14.14-6.59.4-11.52.39-12.67-.04-2.58-1.54-3.55-4.67-4.78-2.77-1.09-6.04-1.84-9.43-2.11-4.28-.33-6.87,1.94-6.8,4.63.01.51.01,3.62.01,3.62-3.52-5.54-9.19-9.39-12.96-10.51-10.16-3.01-20.75-.34-28.75,10.84-6.35,8.89-10.51,21.36-11.69,33.3-1.1,11.13-.9,20.59.6,28.57-1.61,7.98-6.26,16.33-11.51,16.33-6.71,0-10.53-5.94-10.53-33.07,0-15.83.48-22.71.71-34.15.14-6.59.4-11.66.38-12.81-.05-3.52-6.14-5.3-8.98-5.96-2.97-.69-5.53-.94-7.49-.79-2.59.19-4.42,2.52-4.42,4.25v3.99c-3.52-5.54-9.19-9.39-12.96-10.51-10.16-3.01-20.69-.3-28.75,10.84-5.25,7.26-9.5,15.32-11.69,33.15-.63,5.15-.91,9.98-.88,14.49-2.09,12.81-11.34,27.57-18.91,27.57-4.43,0-8.64-8.59-8.64-26.89,0-24.38,1.51-59.08,1.76-62.43,0,0,9.56-.16,11.41-.18,4.77-.05,9.09.06,15.44-.26,3.19-.16,6.25-11.59,2.97-13.01-1.49-.64-12.02-1.2-16.19-1.29-3.51-.08-13.28-.8-13.28-.8,0,0,.88-23.04,1.08-25.47.17-2.03-2.45-3.07-3.96-3.71-3.66-1.55-6.93-2.29-10.81-3.09-5.36-1.11-7.79-.02-8.27,4.5-.72,6.87-1.09,26.98-1.09,26.98-3.93,0-17.37-.77-21.31-.77-3.66,0-7.6,15.72-2.55,15.92,5.82.23,15.95.42,22.67.62,0,0-.3,35.28-.3,46.17,0,1.16,0,2.27.01,3.36-3.7,19.27-16.72,29.69-16.72,29.69,2.8-12.75-2.92-22.33-13.21-30.43-3.79-2.99-11.28-8.64-19.65-14.84,0,0,4.85-4.78,9.15-14.4,3.05-6.81,3.18-14.61-4.3-16.33-12.36-2.84-22.56,6.24-25.6,15.93-2.36,7.51-1.1,13.08,3.52,18.87.34.42.7.86,1.08,1.29-2.79,5.38-6.62,12.62-9.87,18.24-9.01,15.59-15.82,27.92-20.97,27.92-4.11,0-4.06-12.52-4.06-24.25,0-10.11.75-25.3,1.34-41.03.2-5.2-2.4-8.17-6.77-10.85-2.65-1.63-8.3-4.84-11.58-4.84-4.9,0-19.05.67-32.41,39.32-1.68,4.87-4.99,13.75-4.99,13.75l.29-46.49c0-1.09-.58-2.14-1.91-2.86-2.25-1.22-8.27-3.72-13.61-3.72-2.55,0-3.82,1.19-3.82,3.55l-.47,72.73c0,5.53.14,11.97.69,14.79.54,2.82,1.43,5.12,2.52,6.49,1.09,1.36,2.35,2.4,4.43,2.83,1.94.4,12.54,1.76,13.09-2.29.66-4.86.69-10.11,6.25-29.69,8.67-30.49,19.96-45.37,25.28-50.65.93-.92,1.99-.98,1.94.53-.23,6.68-1.02,23.39-1.56,37.58-1.44,37.98,5.47,45.01,15.34,45.01,7.55,0,18.2-7.5,29.61-26.5,7.12-11.84,14.02-23.45,18.99-31.81,3.46,3.2,7.34,6.65,11.22,10.33,9.01,8.56,11.97,16.69,10.01,24.4-1.5,5.9-7.16,11.97-17.23,6.07-2.93-1.72-4.19-3.06-7.14-5-1.59-1.04-4.01-1.36-5.46-.26-3.77,2.84-5.92,6.46-7.16,10.93-1.2,4.35,3.16,6.66,7.68,8.67,3.89,1.73,12.26,3.3,17.59,3.48,20.79.7,37.44-10.04,49.04-37.72,2.08,23.91,10.91,37.44,26.25,37.44,10.26,0,20.54-13.26,25.04-26.31,1.29,5.32,3.2,9.94,5.67,13.85,11.82,18.73,34.76,14.7,46.28-1.21,3.56-4.92,4.1-6.68,4.1-6.68,1.68,15.02,13.78,20.27,20.7,20.27,7.76,0,15.77-3.67,21.38-16.3.66,1.37,1.38,2.68,2.16,3.92,11.82,18.73,34.76,14.7,46.28-1.21.54-.75,1.01-1.42,1.43-2.03l.34,9.87s-6.57,6.03-10.61,9.73c-17.78,16.3-31.29,28.66-32.28,43.05-1.26,18.35,13.61,25.18,24.88,26.07,11.95.95,22.2-5.66,28.49-14.9,5.54-8.14,9.16-25.65,8.9-42.95-.11-6.93-.28-15.74-.42-25.18,6.24-7.25,13.27-16.41,19.75-27.13,7.06-11.69,14.62-27.38,18.49-39.59,0,0,6.57.06,13.58-.4,2.24-.15,2.89.31,2.47,1.96-.5,1.99-8.86,34.23-1.23,55.7,5.22,14.7,16.99,19.43,23.97,19.43,8.17,0,15.98-6.17,20.17-15.33.5,1.02,1.03,2.01,1.61,2.92,11.82,18.73,34.68,14.68,46.28-1.21,2.62-3.58,4.1-6.68,4.1-6.68,2.49,15.55,14.58,20.35,21.5,20.35s14.06-2.96,19.61-16.1c.23,5.79.6,10.52,1.17,12.01.35.91,2.4,2.06,3.89,2.61,6.6,2.45,13.33,1.29,15.82.79,1.72-.35,3.07-1.73,3.25-5.31.48-9.38.19-25.15,3.03-36.86,4.77-19.66,9.23-27.29,11.34-31.06,1.18-2.12,2.52-2.46,2.57-.23.1,4.53.32,17.83,2.17,35.71,1.36,13.14,3.17,20.92,4.57,23.37,3.98,7.03,8.9,7.37,12.9,7.37,2.55,0,7.87-.7,7.39-5.18-.23-2.18.17-15.66,4.88-35.03,3.07-12.65,8.2-24.08,10.05-28.26.68-1.54,1-.33.99-.09-.39,8.71-1.26,37.21,2.29,52.79,4.81,21.11,18.73,23.47,23.58,23.47,10.35,0,18.82-7.88,21.67-28.6.69-4.99-.33-8.84-3.38-8.84h0Z"/>
    </g>
  </g>
</svg>
