<?xml version="1.0" encoding="UTF-8"?>
<svg id="Layer_1" xmlns="http://www.w3.org/2000/svg" version="1.1" viewBox="0 0 779.44 184.74">
  <!-- Generator: Adobe Illustrator 29.8.2, SVG Export Plug-In . SVG Version: 2.1.1 Build 3)  -->
  <defs>
    <style>
      .st0 {
        isolation: isolate;
      }
    </style>
  </defs>
  <g>
    <path d="M11.8,107H0L43.5,27l18,29L88.5,0l36.3,107h-11.7l-33.6-67-18,36-13-20L11.8,107Z"/>
    <path d="M194.9,107.4l-7.9-18.3h-32.3l-8.4,18.3h-12.2l37.3-80.1,36,80.1h-12.5ZM159.5,78.4h22.9l-11.2-25.6-11.7,25.6Z"/>
    <path d="M242.4,75.3l23.3,32.1h-13.9l-21.5-30.9h-2.1v30.9h-11.4V32h13.4c10.13,0,17.63,2.17,22.5,6.5,4.27,3.8,6.4,9,6.4,15.6,0,5.27-1.53,9.83-4.6,13.7-3.07,3.87-7.1,6.37-12.1,7.5h0ZM228.2,42.7v23.9h3.6c5.27,0,9.28-1.05,12.05-3.15s4.15-5.15,4.15-9.15c0-7.73-5.23-11.6-15.7-11.6,0,0-4.1,0-4.1,0Z"/>
    <path d="M277,32h11.4v75.4h-11.4V32Z"/>
    <path d="M358.7,107.4l-7.9-18.3h-32.3l-8.4,18.3h-12.2l37.3-80.1,36,80.1s-12.5,0-12.5,0ZM323.3,78.4h22.9l-11.2-25.6-11.7,25.6h0Z"/>
    <path d="M392,107.4h-11.4V26.9l55,57.5v-52.4h11.4v80l-55-57.4v52.8Z"/>
    <path d="M462,69.4c0-5.13,1.03-10.07,3.1-14.8s4.93-8.9,8.6-12.5,7.93-6.42,12.8-8.45c4.87-2.03,9.9-3.05,15.1-3.05s10.1,1.03,14.9,3.1c4.8,2.07,9.02,4.92,12.65,8.55,3.63,3.63,6.48,7.85,8.55,12.65s3.1,9.77,3.1,14.9-1.05,10.2-3.15,15c-2.1,4.8-4.98,8.98-8.65,12.55-3.67,3.57-7.94,6.37-12.8,8.4-4.87,2.03-9.93,3.05-15.2,3.05-3.73,0-7.75-.67-12.05-2s-8.43-3.6-12.4-6.8c-3.97-3.2-7.03-6.77-9.2-10.7s-3.6-7.58-4.3-10.95c-.7-3.37-1.05-6.35-1.05-8.95h0ZM473.4,69.5c0,4,.75,7.77,2.25,11.3,1.5,3.53,3.56,6.6,6.2,9.2,2.63,2.6,5.63,4.6,9,6s6.78,2.1,10.25,2.1c3.8,0,7.43-.72,10.9-2.15,3.46-1.43,6.48-3.45,9.05-6.05,2.57-2.6,4.58-5.65,6.05-9.15,1.46-3.5,2.2-7.18,2.2-11.05s-.72-7.65-2.15-11.15c-1.44-3.5-3.44-6.53-6-9.1-2.57-2.57-5.57-4.57-9-6-3.44-1.43-7.02-2.15-10.75-2.15s-7.22.72-10.65,2.15c-3.44,1.43-6.45,3.45-9.05,6.05-2.6,2.6-4.63,5.63-6.1,9.1s-2.2,7.1-2.2,10.9h0Z"/>
    <path d="M543.2,32h12.4l20.9,52.3,21.1-52.3h12.5l-33.9,81.1s-33-81.1-33-81.1Z"/>
    <path d="M619.4,32h11.4v75.4h-11.4V32Z"/>
    <path d="M704.6,36.1v13.4c-6.47-5.47-13.27-8.2-20.4-8.2-3.73,0-7.3.73-10.7,2.2s-6.37,3.52-8.9,6.15-4.5,5.7-5.9,9.2-2.1,7.18-2.1,11.05.7,7.42,2.1,10.85c1.4,3.43,3.37,6.45,5.9,9.05,2.53,2.6,5.5,4.63,8.9,6.1s7,2.2,10.8,2.2,7.21-.65,10.25-1.95c3.03-1.3,6.38-3.52,10.05-6.65v13.7c-6.47,3.73-13.3,5.6-20.5,5.6-5.2,0-10.18-1-14.95-3s-8.95-4.78-12.55-8.35-6.4-7.73-8.4-12.5-3-9.75-3-14.95,1-10.22,3-15.05,4.8-9.08,8.4-12.75c3.6-3.67,7.87-6.53,12.8-8.6,4.93-2.07,10.13-3.1,15.6-3.1,6.73,0,13.27,1.87,19.6,5.6h0Z"/>
    <path d="M732.5,32v29.5h32.5v-29.5h11.4v75.4h-11.4v-35.2h-32.5v35.2h-11.4V32h11.4Z"/>
  </g>
  <g class="st0">
    <g class="st0">
      <path d="M639.24,127.28h3.5v34.57c0,7.27-1.54,12.75-4.63,16.46-3.09,3.71-7.56,5.57-13.43,5.57-2.34,0-4.53-.34-6.58-1.01-2.05-.68-3.84-1.67-5.37-3-1.53-1.32-2.79-2.97-3.78-4.94-.99-1.97-1.61-4.18-1.87-6.62h3.74c.93,8.04,5.58,12.07,13.94,12.07,5.19,0,8.9-1.49,11.13-4.48,2.23-2.99,3.35-7.46,3.35-13.43v-5.45c-3.94,4.67-8.67,7.01-14.17,7.01-2.39,0-4.66-.49-6.81-1.48-2.15-.99-4.04-2.35-5.64-4.09-1.61-1.74-2.87-3.75-3.78-6.03-.91-2.28-1.36-4.67-1.36-7.16,0-1.87.31-3.87.93-6,.62-2.13,1.76-4.24,3.42-6.34,1.66-2.1,3.75-3.7,6.27-4.79,2.52-1.09,5.02-1.63,7.51-1.63,2.75,0,5.22.57,7.4,1.71,2.18,1.14,4.25,2.91,6.23,5.29v-6.23ZM611.14,145.19c0,4.46,1.31,8.17,3.93,11.13,2.62,2.96,5.93,4.44,9.93,4.44,1.5,0,3.09-.26,4.75-.78,1.66-.52,3.2-1.4,4.63-2.65,1.43-1.25,2.63-2.89,3.62-4.94.99-2.05,1.48-4.5,1.48-7.36,0-2.23-.4-4.31-1.21-6.23-.81-1.92-1.88-3.55-3.23-4.9-1.35-1.35-2.89-2.38-4.63-3.08-1.74-.7-3.49-1.05-5.25-1.05-1.4,0-2.89.27-4.48.82-1.58.54-3.08,1.45-4.48,2.72-1.4,1.27-2.6,2.92-3.58,4.94-.99,2.02-1.48,4.33-1.48,6.93Z"/>
    </g>
    <g class="st0">
      <path d="M688.28,145.65h-30.83c0,2.65.6,5.19,1.79,7.63,1.19,2.44,2.91,4.31,5.14,5.6,2.23,1.3,4.57,1.95,7.01,1.95,2.7,0,5.07-.66,7.12-1.98,2.05-1.32,3.93-3.41,5.64-6.27l2.96,1.79c-1.82,3.17-4.06,5.58-6.73,7.24-2.67,1.66-5.72,2.49-9.15,2.49-1.87,0-3.81-.31-5.84-.93-2.02-.62-4.01-1.8-5.96-3.54-1.95-1.74-3.41-3.89-4.4-6.46-.99-2.57-1.48-5.15-1.48-7.75,0-3.27.74-6.42,2.22-9.46s3.63-5.37,6.46-7.01c2.83-1.63,5.8-2.45,8.91-2.45,2.44,0,4.71.48,6.81,1.44,2.1.96,3.92,2.3,5.45,4.01,1.53,1.71,2.72,3.75,3.58,6.11.86,2.36,1.29,4.89,1.29,7.59ZM657.69,142.31h26.55c-.73-3.68-2.3-6.69-4.71-9.03-2.41-2.33-5.23-3.5-8.45-3.5-3.37,0-6.31,1.19-8.8,3.58-2.49,2.39-4.02,5.37-4.59,8.95Z"/>
      <path d="M698.56,163.17v-35.89h3.5v4.44c2.18-3.48,5.27-5.22,9.26-5.22,4.51,0,7.86,2.15,10.04,6.46,2.28-4.31,5.79-6.46,10.51-6.46,3.37,0,6.1,1.04,8.17,3.11.93.93,1.66,2.12,2.18,3.54.52,1.43.78,3.59.78,6.5v23.51h-3.5v-23.98c0-3.43-.67-5.86-2.02-7.32-1.25-1.4-3.17-2.1-5.76-2.1-6.02,0-9.03,3.92-9.03,11.75v21.64h-3.58v-23.12c0-6.85-2.65-10.28-7.94-10.28-2.96,0-5.22,1.06-6.77,3.19-1.56,2.13-2.34,5.27-2.34,9.42v20.79h-3.5Z"/>
      <path d="M774.62,132.34l-3.04,1.48c-1.45-2.7-3.5-4.05-6.15-4.05-1.61,0-3.05.57-4.32,1.71-1.27,1.14-1.91,2.49-1.91,4.05,0,1.4.52,2.56,1.56,3.46,1.04.91,2.88,1.88,5.53,2.92,3.22,1.25,5.55,2.37,7.01,3.39,1.45,1.01,2.39,2.17,2.8,3.46.42,1.3.62,2.62.62,3.97,0,3.27-1.12,5.98-3.35,8.13-2.23,2.15-5.03,3.23-8.41,3.23-3.01,0-5.59-.83-7.75-2.49-2.15-1.66-3.67-3.97-4.55-6.93l3.43-1.17c.83,2.39,2,4.2,3.5,5.45,1.5,1.25,3.29,1.87,5.37,1.87,1.56,0,3.02-.45,4.4-1.36,1.37-.91,2.33-1.97,2.88-3.19.54-1.22.82-2.35.82-3.39,0-1.4-.38-2.69-1.13-3.85-.75-1.17-2.69-2.32-5.8-3.46-3.84-1.35-6.55-2.78-8.13-4.28-1.58-1.5-2.38-3.37-2.38-5.61,0-1.82.54-3.5,1.64-5.06,1.09-1.56,2.39-2.63,3.89-3.23,1.5-.6,2.88-.89,4.13-.89,4.05,0,7.16,1.95,9.34,5.84Z"/>
    </g>
  </g>
</svg>