<?xml version="1.0" encoding="UTF-8"?>
<svg id="Layer_1" data-name="Layer 1" xmlns="http://www.w3.org/2000/svg" viewBox="0 0 779.44 184.74">
  <defs>
    <style>
      .cls-1 {
        stroke-width: 0px;
      }

      .cls-1, .cls-2 {
        fill: #000;
      }

      .cls-2 {
        font-family: FuturaNext-Light, 'Futura Next';
        font-size: 77.85px;
        font-weight: 300;
      }

      .cls-3 {
        letter-spacing: 0em;
      }
    </style>
  </defs>
  <g>
    <path class="cls-1" d="M11.8,107H0L43.5,27l18,29L88.5,0l36.3,107h-11.7l-33.6-67-18,36-13-20L11.8,107Z"/>
    <path class="cls-1" d="M194.9,107.4l-7.9-18.3h-32.3l-8.4,18.3h-12.2l37.3-80.1,36,80.1h-12.5ZM159.5,78.4h22.9l-11.2-25.6-11.7,25.6Z"/>
    <path class="cls-1" d="M242.4,75.3l23.3,32.1h-13.9l-21.5-30.9h-2.1v30.9h-11.4V32h13.4c10.13,0,17.63,2.17,22.5,6.5,4.27,3.8,6.4,9,6.4,15.6,0,5.27-1.53,9.83-4.6,13.7-3.07,3.87-7.1,6.37-12.1,7.5ZM228.2,42.7v23.9h3.6c5.27,0,9.28-1.05,12.05-3.15,2.77-2.1,4.15-5.15,4.15-9.15,0-7.73-5.23-11.6-15.7-11.6h-4.1Z"/>
    <path class="cls-1" d="M277,32h11.4v75.4h-11.4V32Z"/>
    <path class="cls-1" d="M358.7,107.4l-7.9-18.3h-32.3l-8.4,18.3h-12.2l37.3-80.1,36,80.1h-12.5ZM323.3,78.4h22.9l-11.2-25.6-11.7,25.6Z"/>
    <path class="cls-1" d="M392,107.4h-11.4V26.9l55,57.5v-52.4h11.4v80l-55-57.4v52.8Z"/>
    <path class="cls-1" d="M462,69.4c0-5.13,1.03-10.07,3.1-14.8,2.07-4.73,4.93-8.9,8.6-12.5s7.93-6.42,12.8-8.45c4.87-2.03,9.9-3.05,15.1-3.05s10.1,1.03,14.9,3.1c4.8,2.07,9.02,4.92,12.65,8.55,3.63,3.63,6.48,7.85,8.55,12.65s3.1,9.77,3.1,14.9-1.05,10.2-3.15,15c-2.1,4.8-4.98,8.98-8.65,12.55-3.67,3.57-7.94,6.37-12.8,8.4-4.87,2.03-9.93,3.05-15.2,3.05-3.73,0-7.75-.67-12.05-2-4.3-1.33-8.43-3.6-12.4-6.8-3.97-3.2-7.03-6.77-9.2-10.7-2.17-3.93-3.6-7.58-4.3-10.95-.7-3.37-1.05-6.35-1.05-8.95ZM473.4,69.5c0,4,.75,7.77,2.25,11.3,1.5,3.53,3.56,6.6,6.2,9.2,2.63,2.6,5.63,4.6,9,6,3.37,1.4,6.78,2.1,10.25,2.1,3.8,0,7.43-.72,10.9-2.15,3.46-1.43,6.48-3.45,9.05-6.05,2.57-2.6,4.58-5.65,6.05-9.15,1.46-3.5,2.2-7.18,2.2-11.05s-.72-7.65-2.15-11.15c-1.44-3.5-3.44-6.53-6-9.1-2.57-2.57-5.57-4.57-9-6-3.44-1.43-7.02-2.15-10.75-2.15s-7.22.72-10.65,2.15c-3.44,1.43-6.45,3.45-9.05,6.05-2.6,2.6-4.63,5.63-6.1,9.1-1.47,3.47-2.2,7.1-2.2,10.9Z"/>
    <path class="cls-1" d="M543.2,32h12.4l20.9,52.3,21.1-52.3h12.5l-33.9,81.1-33-81.1Z"/>
    <path class="cls-1" d="M619.4,32h11.4v75.4h-11.4V32Z"/>
    <path class="cls-1" d="M704.6,36.1v13.4c-6.47-5.47-13.27-8.2-20.4-8.2-3.73,0-7.3.73-10.7,2.2-3.4,1.47-6.37,3.52-8.9,6.15-2.53,2.63-4.5,5.7-5.9,9.2-1.4,3.5-2.1,7.18-2.1,11.05s.7,7.42,2.1,10.85c1.4,3.43,3.37,6.45,5.9,9.05,2.53,2.6,5.5,4.63,8.9,6.1,3.4,1.47,7,2.2,10.8,2.2s7.21-.65,10.25-1.95c3.03-1.3,6.38-3.52,10.05-6.65v13.7c-6.47,3.73-13.3,5.6-20.5,5.6-5.2,0-10.18-1-14.95-3-4.77-2-8.95-4.78-12.55-8.35-3.6-3.57-6.4-7.73-8.4-12.5-2-4.77-3-9.75-3-14.95s1-10.22,3-15.05c2-4.83,4.8-9.08,8.4-12.75,3.6-3.67,7.87-6.53,12.8-8.6,4.93-2.07,10.13-3.1,15.6-3.1,6.73,0,13.27,1.87,19.6,5.6Z"/>
    <path class="cls-1" d="M732.5,32v29.5h32.5v-29.5h11.4v75.4h-11.4v-35.2h-32.5v35.2h-11.4V32h11.4Z"/>
  </g>
  <text class="cls-2" transform="translate(603.2 163.17)"><tspan class="cls-3" x="0" y="0">g</tspan><tspan x="46.47" y="0">ems</tspan></text>
</svg>